<svg width="71" height="71" viewBox="0 0 71 71" fill="none" xmlns="http://www.w3.org/2000/svg">
<g clip-path="url(#clip0_139_1910)">
<path d="M32.772 6.97659C32.4641 3.29623 29.6754 0.391058 26.1448 0.145609C24.0204 3.79165e-06 21.1041 -0.0693321 17.109 0.0998476C13.1138 0.269027 10.1879 0.586586 8.0426 0.911078C4.49121 1.45883 1.45846 4.49297 0.910703 8.04297C0.586211 10.1882 0.276973 13.1156 0.0994728 17.1093C-0.0780272 21.1031 -0.00314445 24.0194 0.145234 26.1452C0.39207 29.6758 3.29586 32.4645 6.97621 32.7723C9.19496 32.9526 12.2236 33.0802 16.3768 33.0677C20.53 33.0552 23.5669 32.911 25.7801 32.7113C27.5656 32.5525 29.2383 31.7709 30.5058 30.5034C31.7733 29.2359 32.5549 27.5632 32.7137 25.7777C32.9134 23.5659 33.059 20.529 33.0701 16.3744C33.0812 12.2198 32.9522 9.1884 32.772 6.97659Z" fill="#DDC6C6"/>
<path d="M70.0881 8.04296C69.5404 4.49296 66.5062 1.45882 62.9562 0.911069C60.811 0.586577 57.8836 0.277339 53.8899 0.099839C49.8961 -0.077661 46.9798 -0.00277824 44.854 0.145601C41.3234 0.39105 38.5347 3.29623 38.2269 6.97658C38.0466 9.19533 37.919 12.2239 37.9315 16.3771C37.944 20.5304 38.0882 23.5673 38.2879 25.7805C38.4465 27.566 39.2279 29.239 40.4955 30.5065C41.763 31.774 43.4359 32.5555 45.2215 32.7141C47.4402 32.9138 50.4702 33.0594 54.6248 33.0705C58.7794 33.0816 61.8136 32.9554 64.0254 32.7751C67.7044 32.4672 70.6095 29.6772 70.8564 26.148C71.0047 24.0221 71.0713 21.1072 70.9021 17.1121C70.7329 13.117 70.4126 10.1882 70.0881 8.04296Z" fill="#DDC6C6"/>
<path d="M32.7114 45.2196C32.5528 43.434 31.7714 41.7611 30.5039 40.4935C29.2363 39.226 27.5634 38.4446 25.7778 38.286C23.5591 38.0863 20.5291 37.9407 16.3745 37.9296C12.2199 37.9185 9.18575 38.0447 6.97393 38.2249C3.29774 38.5356 0.391181 41.3243 0.145731 44.8548C0.000125862 46.9807 -0.0692101 49.8956 0.0999696 53.8907C0.269149 57.8858 0.586708 60.8118 0.9112 62.9571C1.45895 66.5071 4.49309 69.5412 8.04309 70.089C10.1842 70.4135 13.1116 70.7269 17.1053 70.9002C21.0991 71.0735 24.0153 71.0028 26.1412 70.8544C29.669 70.609 32.4604 67.7024 32.7683 64.0235C32.9486 61.8116 33.0761 58.7761 33.0637 54.6229C33.0512 50.4697 32.9111 47.4258 32.7114 45.2196Z" fill="#DDC6C6"/>
<path d="M70.8611 44.8548C70.6156 41.327 67.7091 38.5355 64.0301 38.2277C61.8183 38.0474 58.7828 37.9198 54.6295 37.9323C50.4763 37.9448 47.438 38.089 45.2262 38.2887C43.4407 38.4473 41.7677 39.2287 40.5002 40.4963C39.2326 41.7638 38.4512 43.4367 38.2926 45.2223C38.0929 47.441 37.9473 50.471 37.9362 54.6256C37.9251 58.7802 38.0513 61.8144 38.2316 64.0262C38.5394 67.7051 41.3309 70.6117 44.8587 70.8572C46.9846 71.0055 49.8994 71.0721 53.8946 70.9029C57.8897 70.7337 60.8157 70.4162 62.9568 70.0917C66.5123 69.5439 69.5451 66.5098 70.0928 62.9556C70.4173 60.8145 70.7307 57.8872 70.9041 53.8934C71.0774 49.8997 70.9998 46.9806 70.8611 44.8548Z" fill="#DDC6C6"/>
</g>
<defs>
<clipPath id="clip0_139_1910">
<rect width="71" height="71" fill="white"/>
</clipPath>
</defs>
</svg>
