<svg width="81" height="81" viewBox="0 0 81 81" fill="none" xmlns="http://www.w3.org/2000/svg">
<path d="M81 29.1094V26.5781C81 24.4772 79.3041 22.7812 77.2031 22.7812H72.9253L68.4703 13.8966C66.5466 9.99844 62.6231 7.59375 58.2947 7.59375H52.8019L51.1313 2.60719C50.625 1.03781 49.1822 0 47.5369 0H33.4631C31.8178 0 30.375 1.03781 29.8688 2.60719L28.1981 7.59375H22.7053C18.3769 7.59375 14.4534 9.99844 12.5297 13.8966L8.07469 22.7812H3.79688C1.69594 22.7812 0 24.4772 0 26.5781V29.1094C0 29.5903 0.278437 30.0206 0.70875 30.2484L3.61969 31.7166L1.74656 35.4881C0.6075 37.7409 0 40.2722 0 42.8288V69.6094C0 71.7103 1.69594 73.4062 3.79688 73.4062H11.3906C13.4916 73.4062 15.1875 71.7103 15.1875 69.6094V65.8125H65.8125V69.6094C65.8125 71.7103 67.5084 73.4062 69.6094 73.4062H77.2031C79.3041 73.4062 81 71.7103 81 69.6094V42.8288C81 40.2975 80.3925 37.7409 79.2534 35.4628L77.3803 31.6913L80.2912 30.2231C80.7216 30.0206 81 29.5903 81 29.1094ZM15.1875 55.6875C11.0109 55.6875 7.59375 52.2703 7.59375 48.0938C7.59375 43.9172 11.0109 40.5 15.1875 40.5C19.3641 40.5 22.7812 43.9172 22.7812 48.0938C22.7812 52.2703 19.3641 55.6875 15.1875 55.6875ZM65.8125 55.6875C61.6359 55.6875 58.2188 52.2703 58.2188 48.0938C58.2188 43.9172 61.6359 40.5 65.8125 40.5C69.9891 40.5 73.4062 43.9172 73.4062 48.0938C73.4062 52.2703 69.9891 55.6875 65.8125 55.6875ZM69.3056 32.9062H11.6944L7.01156 30.5775L14.7825 15.0356C16.3013 11.9981 19.3388 10.125 22.7053 10.125H58.2947C61.6613 10.125 64.6987 11.9981 66.2175 15.0103L73.9884 30.5522L69.3056 32.9062Z" fill="#DDC6C6"/>
<path d="M15.1875 53.1562C17.9834 53.1562 20.25 50.8897 20.25 48.0938C20.25 45.2978 17.9834 43.0312 15.1875 43.0312C12.3916 43.0312 10.125 45.2978 10.125 48.0938C10.125 50.8897 12.3916 53.1562 15.1875 53.1562Z" fill="#DDC6C6"/>
<path d="M65.8125 53.1562C68.6084 53.1562 70.875 50.8897 70.875 48.0938C70.875 45.2978 68.6084 43.0312 65.8125 43.0312C63.0166 43.0312 60.75 45.2978 60.75 48.0938C60.75 50.8897 63.0166 53.1562 65.8125 53.1562Z" fill="#DDC6C6"/>
</svg>
