<svg width="16" height="17" viewBox="0 0 16 17" fill="none" xmlns="http://www.w3.org/2000/svg">
<g clip-path="url(#clip0_305_492)">
<path d="M3.32812 14.0442C3.32813 14.3428 3.46349 14.6291 3.70443 14.8402C3.94538 15.0513 4.27217 15.1699 4.61292 15.1699H14.0433C14.3841 15.1699 14.7109 15.0513 14.9518 14.8402C15.1928 14.6291 15.3281 14.3428 15.3281 14.0442V7.67274H3.32812V14.0442ZM11.8977 9.45135C11.8977 9.37671 11.9316 9.30513 11.9918 9.25235C12.052 9.19957 12.1337 9.16992 12.2189 9.16992H13.2853C13.3705 9.16992 13.4522 9.19957 13.5124 9.25235C13.5727 9.30513 13.6065 9.37671 13.6065 9.45135V10.3857C13.6065 10.4603 13.5727 10.5319 13.5124 10.5847C13.4522 10.6375 13.3705 10.6671 13.2853 10.6671H12.2189C12.1337 10.6671 12.052 10.6375 11.9918 10.5847C11.9316 10.5319 11.8977 10.4603 11.8977 10.3857V9.45135ZM11.8977 12.457C11.8977 12.3823 11.9316 12.3108 11.9918 12.258C12.052 12.2052 12.1337 12.1756 12.2189 12.1756H13.2853C13.3705 12.1756 13.4522 12.2052 13.5124 12.258C13.5727 12.3108 13.6065 12.3823 13.6065 12.457V13.3913C13.6065 13.4659 13.5727 13.5375 13.5124 13.5903C13.4522 13.6431 13.3705 13.6727 13.2853 13.6727H12.2189C12.1337 13.6727 12.052 13.6431 11.9918 13.5903C11.9316 13.5375 11.8977 13.4659 11.8977 13.3913V12.457ZM8.46731 9.45135C8.46731 9.37671 8.50115 9.30513 8.56139 9.25235C8.62163 9.19957 8.70332 9.16992 8.78851 9.16992H9.86774C9.95293 9.16992 10.0346 9.19957 10.0949 9.25235C10.1551 9.30513 10.1889 9.37671 10.1889 9.45135V10.3857C10.1889 10.4603 10.1551 10.5319 10.0949 10.5847C10.0346 10.6375 9.95293 10.6671 9.86774 10.6671H8.78851C8.70332 10.6671 8.62163 10.6375 8.56139 10.5847C8.50115 10.5319 8.46731 10.4603 8.46731 10.3857V9.45135ZM8.46731 12.457C8.46731 12.3823 8.50115 12.3108 8.56139 12.258C8.62163 12.2052 8.70332 12.1756 8.78851 12.1756H9.86774C9.95293 12.1756 10.0346 12.2052 10.0949 12.258C10.1551 12.3108 10.1889 12.3823 10.1889 12.457V13.3913C10.1889 13.4659 10.1551 13.5375 10.0949 13.5903C10.0346 13.6431 9.95293 13.6727 9.86774 13.6727H8.78851C8.70332 13.6727 8.62163 13.6431 8.56139 13.5903C8.50115 13.5375 8.46731 13.4659 8.46731 13.3913V12.457ZM5.04975 9.45135C5.04975 9.37671 5.08359 9.30513 5.14383 9.25235C5.20407 9.19957 5.28576 9.16992 5.37095 9.16992H6.43733C6.52252 9.16992 6.60422 9.19957 6.66446 9.25235C6.72469 9.30513 6.75853 9.37671 6.75853 9.45135V10.3857C6.75853 10.4603 6.72469 10.5319 6.66446 10.5847C6.60422 10.6375 6.52252 10.6671 6.43733 10.6671H5.37095C5.28576 10.6671 5.20407 10.6375 5.14383 10.5847C5.08359 10.5319 5.04975 10.4603 5.04975 10.3857V9.45135ZM5.04975 12.457C5.04975 12.3823 5.08359 12.3108 5.14383 12.258C5.20407 12.2052 5.28576 12.1756 5.37095 12.1756H6.43733C6.52252 12.1756 6.60422 12.2052 6.66446 12.258C6.72469 12.3108 6.75853 12.3823 6.75853 12.457V13.3913C6.75853 13.4659 6.72469 13.5375 6.66446 13.5903C6.60422 13.6431 6.52252 13.6727 6.43733 13.6727H5.37095C5.28576 13.6727 5.20407 13.6431 5.14383 13.5903C5.08359 13.5375 5.04975 13.4659 5.04975 13.3913V12.457ZM14.0433 4.66711H12.7585V3.5414C12.7552 3.44186 12.7077 3.34738 12.6261 3.27801C12.5446 3.20865 12.4354 3.16988 12.3217 3.16992H11.4737C11.3601 3.16988 11.2509 3.20865 11.1693 3.27801C11.0877 3.34738 11.0402 3.44186 11.0369 3.5414V4.66711H7.61935V3.5414C7.616 3.44186 7.56851 3.34738 7.48695 3.27801C7.40538 3.20865 7.29618 3.16988 7.18251 3.16992H6.33455C6.22089 3.16988 6.11168 3.20865 6.03012 3.27801C5.94856 3.34738 5.90106 3.44186 5.89772 3.5414V4.66711H4.61292C4.27217 4.66711 3.94538 4.78571 3.70443 4.99682C3.46349 5.20793 3.32813 5.49426 3.32812 5.79281V6.91851H15.3281V5.79281C15.3281 5.49426 15.1928 5.20793 14.9518 4.99682C14.7109 4.78571 14.3841 4.66711 14.0433 4.66711Z" fill="#010101"/>
</g>
<defs>
<clipPath id="clip0_305_492">
<rect width="16" height="16" fill="white" transform="translate(0 0.5)"/>
</clipPath>
</defs>
</svg>
