<svg width="18" height="18" viewBox="0 0 18 18" fill="none" xmlns="http://www.w3.org/2000/svg">
<path d="M8.0589 9.9411C8.21712 10.0993 8.30601 10.3139 8.30601 10.5377C8.30601 10.7615 8.21712 10.9761 8.0589 11.1343L2.88074 16.3125H6.95886C7.18264 16.3125 7.39725 16.4014 7.55548 16.5596C7.71372 16.7179 7.80261 16.9325 7.80261 17.1562C7.80261 17.38 7.71372 17.5946 7.55548 17.7529C7.39725 17.9111 7.18264 18 6.95886 18H0.84375C0.619974 18 0.405362 17.9111 0.247129 17.7529C0.0888948 17.5946 0 17.38 0 17.1562L0 11.041C0 10.8173 0.0888948 10.6026 0.247129 10.4444C0.405362 10.2862 0.619974 10.1973 0.84375 10.1973C1.06753 10.1973 1.28214 10.2862 1.44037 10.4444C1.59861 10.6026 1.6875 10.8173 1.6875 11.041V15.1192L6.86566 9.94099C7.02391 9.78277 7.23853 9.6939 7.46231 9.69392C7.68608 9.69394 7.90068 9.78285 8.0589 9.9411ZM17.7529 0.247113C17.6745 0.168765 17.5815 0.106616 17.4791 0.0642166C17.3768 0.0218168 17.2671 -4.03687e-06 17.1562 5.60169e-10L11.041 5.6017e-10C10.8172 5.6017e-10 10.6026 0.0888948 10.4444 0.247129C10.2861 0.405362 10.1972 0.619974 10.1972 0.84375C10.1972 1.06753 10.2861 1.28214 10.4444 1.44037C10.6026 1.59861 10.8172 1.6875 11.041 1.6875H15.1191L9.9411 6.86566C9.78445 7.02422 9.6969 7.23832 9.69757 7.46121C9.69825 7.6841 9.78709 7.89767 9.94469 8.05527C10.1023 8.21288 10.3159 8.30173 10.5387 8.30241C10.7616 8.30309 10.9757 8.21555 11.1343 8.0589L16.3125 2.88074V6.95886C16.3125 7.18264 16.4014 7.39725 16.5596 7.55548C16.7179 7.71372 16.9325 7.80261 17.1562 7.80261C17.38 7.80261 17.5946 7.71372 17.7529 7.55548C17.9111 7.39725 18 7.18264 18 6.95886V0.84375C18 0.732946 17.9782 0.623226 17.9358 0.520854C17.8934 0.418483 17.8312 0.325466 17.7529 0.247113Z" fill="#DDC6C6"/>
</svg>
