<svg width="83" height="83" viewBox="0 0 83 83" fill="none" xmlns="http://www.w3.org/2000/svg">
<g clip-path="url(#clip0_123_1692)">
<path d="M25.0759 57.7197C22.8811 56.4608 21.3981 54.0956 21.3981 51.3885C21.3981 40.215 30.4882 31.1249 41.6617 31.1249H50.0123L50.4055 24.6405H3.08984L6.48844 80.7151C6.56633 81.9987 7.62954 82.9999 8.91565 82.9999H23.836C22.3061 80.9665 21.3981 78.4399 21.3981 75.705C21.3981 72.5521 23.4092 69.8602 26.2158 68.8438C25.2209 67.3183 24.6403 65.4997 24.6403 63.5468C24.6403 61.5919 25.2222 59.7714 26.2189 58.2446C25.4261 58.0661 24.986 57.8907 25.0759 57.7197Z" fill="#DDC6C6"/>
<path d="M26.7455 19.778C26.7474 19.778 26.7493 19.7773 26.7512 19.7773H51.0645C52.4076 19.7773 53.4961 18.6888 53.4961 17.3457C53.4961 16.0026 52.4076 14.9141 51.0645 14.9141H31.2371L37.7917 4.86328H46.2012C47.5443 4.86328 48.6328 3.77474 48.6328 2.43164C48.6328 1.08854 47.5443 0 46.2012 0H36.4746C35.6527 0 34.8864 0.414772 34.4381 1.1031L25.4309 14.9141H2.43164C1.08854 14.9141 0 16.0026 0 17.3457C0 18.6888 1.08854 19.7773 2.43164 19.7773H26.7366C26.7398 19.7773 26.743 19.778 26.7455 19.778Z" fill="#DDC6C6"/>
<path d="M26.2617 51.3887C26.2617 52.7318 27.3503 53.8203 28.6934 53.8203H80.5684C81.9115 53.8203 83 52.7318 83 51.3887C83 42.8969 76.0914 35.9883 67.5996 35.9883H41.6621C33.1704 35.9883 26.2617 42.8969 26.2617 51.3887Z" fill="#DDC6C6"/>
<path d="M34.3672 58.6835C31.681 58.6835 29.5039 60.8605 29.5039 63.5468C29.5039 66.233 31.681 68.41 34.3672 68.41H74.8945C77.5807 68.41 79.7578 66.233 79.7578 63.5468C79.7578 60.8605 77.5807 58.6835 74.8945 58.6835H34.3672Z" fill="#DDC6C6"/>
<path d="M80.5684 73.2734H28.6934C27.3503 73.2734 26.2617 74.362 26.2617 75.7051C26.2617 79.7274 29.5343 83 33.5566 83H75.7051C79.7274 83 83 79.7274 83 75.7051C83 74.362 81.9115 73.2734 80.5684 73.2734Z" fill="#DDC6C6"/>
</g>
<defs>
<clipPath id="clip0_123_1692">
<rect width="83" height="83" fill="white"/>
</clipPath>
</defs>
</svg>
