<svg width="79" height="69" viewBox="0 0 79 69" fill="none" xmlns="http://www.w3.org/2000/svg">
<path d="M72.2916 60.4167H5.70822C3.55406 60.4167 1.79156 62.1792 1.79156 64.3333C1.79156 66.4875 3.55406 68.25 5.70822 68.25H72.2916C74.4458 68.25 76.2083 66.4875 76.2083 64.3333C76.2083 62.1792 74.4458 60.4167 72.2916 60.4167ZM78.4408 23.7566C77.5791 20.6232 74.3675 18.7824 71.2341 19.6049L50.4366 25.1666L25.1349 1.58823C24.0774 0.5699 22.5499 0.2174 21.1399 0.609066C18.4766 1.35323 17.2232 4.40823 18.5941 6.7974L32.0675 30.1409L12.6016 35.35L6.45239 30.4933C5.47322 29.7492 4.21989 29.475 3.00572 29.7884L1.71322 30.1409C0.459891 30.4542 -0.127609 31.9034 0.538224 33L7.90156 45.7292C8.80239 47.2567 10.6041 48.0009 12.2882 47.57L74.25 30.9633C77.3833 30.1017 79.2633 26.89 78.4408 23.7566Z" fill="#DDC6C6"/>
</svg>
