<svg width="35" height="35" viewBox="0 0 35 35" fill="none" xmlns="http://www.w3.org/2000/svg">
<path fill-rule="evenodd" clip-rule="evenodd" d="M13.0215 7.9895H8.70898C8.31203 7.9895 7.99023 8.3113 7.99023 8.70825V13.0208C7.99023 13.4177 8.31203 13.7395 8.70898 13.7395H13.0215C13.4184 13.7395 13.7402 13.4177 13.7402 13.0208V8.70825C13.7402 8.3113 13.4184 7.9895 13.0215 7.9895ZM8.70898 5.83325C7.12117 5.83325 5.83398 7.12043 5.83398 8.70825V13.0208C5.83398 14.6086 7.12117 15.8958 8.70898 15.8958H13.0215C14.6093 15.8958 15.8965 14.6086 15.8965 13.0208V8.70825C15.8965 7.12043 14.6093 5.83325 13.0215 5.83325H8.70898Z" fill="white"/>
<path fill-rule="evenodd" clip-rule="evenodd" d="M25.959 7.9895H21.6465C21.2495 7.9895 20.9277 8.3113 20.9277 8.70825V13.0208C20.9277 13.4177 21.2495 13.7395 21.6465 13.7395H25.959C26.3559 13.7395 26.6777 13.4177 26.6777 13.0208V8.70825C26.6777 8.3113 26.3559 7.9895 25.959 7.9895ZM21.6465 5.83325C20.0587 5.83325 18.7715 7.12043 18.7715 8.70825V13.0208C18.7715 14.6086 20.0587 15.8958 21.6465 15.8958H25.959C27.5468 15.8958 28.834 14.6086 28.834 13.0208V8.70825C28.834 7.12043 27.5468 5.83325 25.959 5.83325H21.6465Z" fill="white"/>
<path fill-rule="evenodd" clip-rule="evenodd" d="M13.0215 20.927H8.70898C8.31203 20.927 7.99023 21.2488 7.99023 21.6458V25.9583C7.99023 26.3552 8.31203 26.677 8.70898 26.677H13.0215C13.4184 26.677 13.7402 26.3552 13.7402 25.9583V21.6458C13.7402 21.2488 13.4184 20.927 13.0215 20.927ZM8.70898 18.7708C7.12117 18.7708 5.83398 20.0579 5.83398 21.6458V25.9583C5.83398 27.5461 7.12117 28.8333 8.70898 28.8333H13.0215C14.6093 28.8333 15.8965 27.5461 15.8965 25.9583V21.6458C15.8965 20.0579 14.6093 18.7708 13.0215 18.7708H8.70898Z" fill="white"/>
<path fill-rule="evenodd" clip-rule="evenodd" d="M25.959 20.927H21.6465C21.2495 20.927 20.9277 21.2488 20.9277 21.6458V25.9583C20.9277 26.3552 21.2495 26.677 21.6465 26.677H25.959C26.3559 26.677 26.6777 26.3552 26.6777 25.9583V21.6458C26.6777 21.2488 26.3559 20.927 25.959 20.927ZM21.6465 18.7708C20.0587 18.7708 18.7715 20.0579 18.7715 21.6458V25.9583C18.7715 27.5461 20.0587 28.8333 21.6465 28.8333H25.959C27.5468 28.8333 28.834 27.5461 28.834 25.9583V21.6458C28.834 20.0579 27.5468 18.7708 25.959 18.7708H21.6465Z" fill="white"/>
</svg>
