<svg width="74" height="74" viewBox="0 0 74 74" fill="none" xmlns="http://www.w3.org/2000/svg">
<g clip-path="url(#clip0_139_1909)">
<path d="M64.3801 4.5708V0H30.9178V4.59407H21.6396V32.2192C27.0695 35.1714 30.7633 40.9279 30.7633 47.5311C30.7633 51.4546 28.1897 57.8585 22.8949 67.1086C22.474 67.844 22.0542 68.5643 21.6396 69.266V73.4355H45.5205V59.4421H50.0834V73.4355H73.5058V4.60173L64.3801 4.5708ZM40.9574 54.5358H36.3943V49.973H40.9574V54.5358ZM40.9574 45.4097H36.3943V40.8468H40.9574V45.4097ZM40.9574 36.4933H36.3943V31.9304H40.9574V36.4933ZM50.0835 54.5358H45.5204V49.973H50.0835V54.5358ZM50.0835 45.4097H45.5204V40.8468H50.0835V45.4097ZM50.0835 36.4933H45.5204V31.9304H50.0835V36.4933ZM54.6465 25.8462H50.0837V20.5226H45.5203V25.8462H40.9574V10.6361H45.5203V15.9597H50.0837V10.6361H54.6465V25.8462ZM59.2098 54.5358H54.6467V49.973H59.2098V54.5358ZM59.2098 45.4097H54.6467V40.8468H59.2098V45.4097ZM59.2098 36.4933H54.6467V31.9304H59.2098V36.4933Z" fill="#DDC6C6"/>
<path d="M13.3469 34.6785C6.25993 34.6785 0.494141 40.4443 0.494141 47.5311C0.494141 49.2537 1.43619 53.7898 7.746 64.8176C9.81597 68.4356 11.9037 71.7627 13.3469 74.0001C14.7899 71.7627 16.8778 68.4356 18.9477 64.8176C25.2574 53.7898 26.1996 49.2536 26.1996 47.5311C26.1995 40.4441 20.4338 34.6785 13.3469 34.6785ZM13.3469 56.0033C8.67519 56.0033 4.87445 52.2026 4.87445 47.5309C4.87445 42.8592 8.67504 39.0585 13.3469 39.0585C18.0186 39.0585 21.8193 42.8592 21.8193 47.5309C21.8193 52.2026 18.0186 56.0033 13.3469 56.0033Z" fill="#DDC6C6"/>
<path d="M13.348 43.6213C11.1924 43.6213 9.43848 45.3751 9.43848 47.5309C9.43848 49.6867 11.1922 51.4405 13.348 51.4405C15.5039 51.4405 17.2576 49.6867 17.2576 47.5309C17.2576 45.3752 15.5036 43.6213 13.348 43.6213Z" fill="#DDC6C6"/>
</g>
<defs>
<clipPath id="clip0_139_1909">
<rect width="74" height="74" fill="white"/>
</clipPath>
</defs>
</svg>
