<svg width="70" height="79" viewBox="0 0 70 79" fill="none" xmlns="http://www.w3.org/2000/svg">
<path d="M35.021 61.0001C35.3972 61.0004 35.7696 60.925 36.116 60.7783C36.4623 60.6315 36.7756 60.4165 37.037 60.1461C42.2296 54.8093 54.46 40.7001 55.9048 24.9374C56.1962 21.8195 55.8419 18.675 54.8643 15.7C53.8866 12.725 52.3064 9.98333 50.2222 7.64605C48.3516 5.52888 46.059 3.82617 43.4916 2.64721C40.9241 1.46825 38.1386 0.839067 35.3136 0.800049H35.021C32.2562 0.80409 29.5193 1.35271 26.9665 2.41457C24.4138 3.47643 22.0952 5.03074 20.1432 6.98874C18.1912 8.94674 16.644 11.2701 15.5899 13.8261C14.5359 16.3821 13.9956 19.1207 14 21.8855C14 38.7947 27.3 54.2801 33.012 60.1489C33.2725 60.4185 33.5846 60.6328 33.9298 60.7791C34.275 60.9253 34.6461 61.0005 35.021 61.0001ZM16.8 21.8001C16.8 18.2004 17.8674 14.6816 19.8673 11.6887C21.8671 8.6957 24.7096 6.36296 28.0352 4.98544C31.3608 3.60793 35.0202 3.24751 38.5507 3.94976C42.0811 4.65201 45.3241 6.38539 47.8694 8.93071C50.4147 11.476 52.1481 14.719 52.8503 18.2494C53.5526 21.7799 53.1922 25.4393 51.8146 28.7649C50.4371 32.0905 48.1044 34.933 45.1114 36.9328C42.1184 38.9326 38.5996 40.0001 35 40.0001C30.1748 39.9945 25.5488 38.0752 22.1368 34.6633C18.7249 31.2513 16.8056 26.6253 16.8 21.8001Z" fill="#DDC6C6"/>
<path d="M34.9996 37.2C43.5048 37.2 50.3996 30.3052 50.3996 21.8C50.3996 13.2948 43.5048 6.40002 34.9996 6.40002C26.4944 6.40002 19.5996 13.2948 19.5996 21.8C19.5996 30.3052 26.4944 37.2 34.9996 37.2Z" fill="#DDC6C6"/>
<path d="M1.07801 29.5882C0.771154 29.6576 0.497126 29.8296 0.301147 30.0757C0.105167 30.3218 -0.00105174 30.6274 1.48311e-05 30.942V77.142C-0.000959387 77.3524 0.0460739 77.5602 0.137535 77.7497C0.228997 77.9392 0.362476 78.1053 0.527815 78.2354C0.694062 78.3661 0.887749 78.4574 1.09433 78.5025C1.30092 78.5476 1.51504 78.5453 1.72062 78.4958L21 73.9668V49.7818C16.7594 43.4538 12.7988 35.5858 11.5836 27.1018L1.07801 29.5882Z" fill="#DDC6C6"/>
<path d="M35.0208 63.8C34.2716 63.8017 33.5297 63.6521 32.8397 63.36C32.1498 63.068 31.5259 62.6395 31.0056 62.1004C28.435 59.4531 26.0285 56.6512 23.7998 53.7102V73.9472L46.1998 78.92V53.7494C43.9843 56.6736 41.5944 59.4614 39.043 62.0976C38.5217 62.6375 37.8967 63.0666 37.2056 63.3591C36.5144 63.6516 35.7713 63.8016 35.0208 63.8Z" fill="#DDC6C6"/>
<path d="M69.4722 25.5645C69.306 25.4339 69.1123 25.3426 68.9057 25.2975C68.6991 25.2524 68.485 25.2547 68.2794 25.3041L58.3674 27.6281C56.8725 35.6158 53.6778 43.1886 49 49.8335V78.9101L68.922 74.2117C69.2289 74.1423 69.5029 73.9704 69.6989 73.7243C69.8948 73.4781 70.0011 73.1726 70 72.8579V26.6579C70.001 26.4476 69.9539 26.2397 69.8625 26.0502C69.771 25.8608 69.6375 25.6947 69.4722 25.5645Z" fill="#DDC6C6"/>
</svg>
