<svg width="14" height="14" viewBox="0 0 14 14" fill="none" xmlns="http://www.w3.org/2000/svg">
<path d="M7 0.0222168C3.2875 0.0222168 0.25 3.05972 0.25 6.77222C0.25 10.4847 3.2875 13.5222 7 13.5222C10.7125 13.5222 13.75 10.4847 13.75 6.77222C13.75 3.05972 10.7125 0.0222168 7 0.0222168ZM7 12.1722C3.9625 12.1722 1.6 9.80972 1.6 6.77222C1.6 3.73472 3.9625 1.37222 7 1.37222C10.0375 1.37222 12.4 3.73472 12.4 6.77222C12.4 9.80972 10.0375 12.1722 7 12.1722ZM7.3375 3.39722H6.325V7.44722L9.8125 9.58472L10.375 8.79722L7.3375 6.88472V3.39722Z" fill="black"/>
</svg>
