<svg width="78" height="78" viewBox="0 0 78 78" fill="none" xmlns="http://www.w3.org/2000/svg">
<g clip-path="url(#clip0_558_4943)">
<path d="M50.2115 53.7913H10.3076V59.4818H50.5449C50.0524 57.4787 49.9748 55.7227 50.2115 53.7913Z" fill="#DDC6C6"/>
<path d="M72.2462 12.0742H66.5557V39.7034C68.5576 39.714 70.4772 40.0946 72.2462 40.7797V12.0742Z" fill="#DDC6C6"/>
<path d="M11.3496 31.0579C13.3168 31.5862 18.1356 32.8805 20.0438 33.3932C21.9325 32.8857 26.7919 31.5806 28.7379 31.0579L20.0438 17.1269L11.3496 31.0579Z" fill="#DDC6C6"/>
<path d="M40.0759 49.2242L31.2645 35.1074C30.2893 35.3694 21.2635 37.7953 20.0433 38.1232L8.82051 35.1074L0 49.2242H40.0759Z" fill="#DDC6C6"/>
<path d="M39.5568 39.7674L47.2782 26.7847L56.7731 42.7527C58.3259 41.6292 60.0872 40.7736 61.9887 40.2606C61.9887 33.2377 61.9887 8.37175 61.9887 1.81665H0V40.6138L20.0433 8.5013L39.5568 39.7674ZM49.5084 9.72984H54.0755V14.2969H49.5084V9.72984Z" fill="#DDC6C6"/>
<path d="M42.2773 44.1274L45.4591 49.2242H51.4952C52.0096 48.0875 52.6494 47.0131 53.4088 46.0273L47.2783 35.7194L42.2773 44.1274Z" fill="#DDC6C6"/>
<path d="M76.8134 50.7222C73.5859 44.1179 64.9124 42.2004 59.1206 46.6986C56.3024 48.8698 54.6006 52.3551 54.6525 55.921C54.8236 62.8015 62.4616 71.8643 66.3259 76.1835C70.6357 71.4779 77.9993 62.1474 77.9993 55.9423C78.0212 54.0904 77.5909 52.2881 76.8134 50.7222ZM64.0424 53.1564H68.6094V57.7235C67.5353 57.7235 65.1353 57.7235 64.0424 57.7235C64.0424 57.5837 64.0424 53.4533 64.0424 53.1564Z" fill="#DDC6C6"/>
</g>
<defs>
<clipPath id="clip0_558_4943">
<rect width="78" height="78" fill="white"/>
</clipPath>
</defs>
</svg>
