<svg width="18" height="22" viewBox="0 0 18 22" fill="none" xmlns="http://www.w3.org/2000/svg">
<path fill-rule="evenodd" clip-rule="evenodd" d="M9 6.1875C7.75725 6.1875 6.75 7.11081 6.75 8.25C6.75 9.38918 7.75725 10.3125 9 10.3125C10.2428 10.3125 11.25 9.38918 11.25 8.25C11.25 7.11081 10.2428 6.1875 9 6.1875ZM9 11.6875C6.92925 11.6875 5.25 10.1489 5.25 8.25C5.25 6.35112 6.92925 4.8125 9 4.8125C11.0708 4.8125 12.75 6.35112 12.75 8.25C12.75 10.1489 11.0708 11.6875 9 11.6875ZM9 0C4.02975 0 0 3.69394 0 8.25C0 11.6999 7.50375 22.0076 9 22C10.473 22.0076 18 11.6531 18 8.25C18 3.69394 13.9703 0 9 0Z" fill="url(#paint0_linear_80_915)"/>
<defs>
<linearGradient id="paint0_linear_80_915" x1="9" y1="0" x2="9" y2="22" gradientUnits="userSpaceOnUse">
<stop stop-color="#7B1050"/>
<stop offset="1" stop-color="#421343"/>
</linearGradient>
</defs>
</svg>
